<?xml version="1.0" standalone="no"?>
<svg viewBox="0 0 200 200" xmlns="http://www.w3.org/2000/svg">
  <defs>
  <linearGradient id="linear" x1="0%" y1="0%" x2="100%" y2="0%">
      <stop offset="0%"   stop-color="#00c9ff"/>
      <stop offset="100%" stop-color="#92fe9d"/>
    </linearGradient>
  </defs>
  <path fill="url(#linear)" d="M36.8,-66C46.1,-58.3,51.1,-45.3,60.7,-33.4C70.3,-21.6,84.6,-10.8,87.8,1.9C91,14.5,83.2,29,74.1,41.8C65,54.6,54.7,65.8,42.2,69.4C29.6,73,14.8,69.2,-0.9,70.7C-16.6,72.3,-33.2,79.3,-42.5,73.8C-51.7,68.2,-53.6,50.2,-61,35.8C-68.3,21.4,-81.1,10.7,-84.8,-2.1C-88.4,-14.9,-83,-29.8,-73.2,-40C-63.4,-50.1,-49.2,-55.4,-36.3,-61.1C-23.4,-66.7,-11.7,-72.6,1,-74.4C13.7,-76.1,27.5,-73.7,36.8,-66Z" transform="translate(100 100)" />
</svg>
