        <svg xmlns="http://www.w3.org/2000/svg" viewBox="0 0 1440 320" style="transform: rotate(180deg)"><path fill="#fff" fill-opacity="1" d="M0,192L24,192C48,192,96,192,144,208C192,224,240,256,288,266.7C336,277,384,267,432,245.3C480,224,528,192,576,170.7C624,149,672,139,720,160C768,181,816,235,864,229.3C912,224,960,160,1008,112C1056,64,1104,32,1152,32C1200,32,1248,64,1296,64C1344,64,1392,32,1416,16L1440,0L1440,0L1416,0C1392,0,1344,0,1296,0C1248,0,1200,0,1152,0C1104,0,1056,0,1008,0C960,0,912,0,864,0C816,0,768,0,720,0C672,0,624,0,576,0C528,0,480,0,432,0C384,0,336,0,288,0C240,0,192,0,144,0C96,0,48,0,24,0L0,0Z"></path></svg>
